<svg xmlns="http://www.w3.org/2000/svg" width="46.97" height="64" viewBox="0 0 46.97 64">
  <defs>
    <style>
      .cls-1 {
        fill: #fe8900;
        fill-rule: evenodd;
      }
    </style>
  </defs>
  <path id="icon_advantage-2.svg" class="cls-1" d="M1094.73,1295.89c0.35,0,.69.02,1.05,0.03l0.18-.37a2.533,2.533,0,0,1,2.31-1.47v-0.02h4.15v-4.55a1.515,1.515,0,0,1,3.03,0v4.55h4.09v-4.55a1.533,1.533,0,0,1,1.54-1.5,1.507,1.507,0,0,1,1.51,1.5v4.55h4.13a2.562,2.562,0,0,1,2.37,1.6l0.14,0.26c0.33-.01.69-0.03,1.05-0.03a10.793,10.793,0,0,1,7.57,3.09h0l0.08,0.09v-9.56a1.53,1.53,0,0,1,3.06,0v16.92a10.277,10.277,0,0,1-1.55,5.45c-0.76,1.24-1.77,2.42-2.58,3.59l-5.3,9.05a2.552,2.552,0,0,1-2.19,1.24v0.01h-3.64v3.9a2.518,2.518,0,0,1-2.53,2.49h-3.17v3.92a2.529,2.529,0,0,1-2.53,2.51,4.268,4.268,0,0,0-3.03,1.22l-0.01.01a4.14,4.14,0,0,0-1.25,2.97,4.286,4.286,0,0,0,8.57,0,2.535,2.535,0,0,1,5.07,0,9.366,9.366,0,0,1-18.73,0,9.1,9.1,0,0,1,2.74-6.5h0.02l0.04-.05a9.58,9.58,0,0,1,4.02-2.31v-1.77h-3.14a2.521,2.521,0,0,1-2.54-2.49v-3.9h-3.63a2.558,2.558,0,0,1-2.31-1.45l-5.3-9.03c-1.77-3.07-4-4.87-4-8.86v-16.92a1.525,1.525,0,0,1,3.05,0v9.56l0.08-.09,0.08-.08a10.773,10.773,0,0,1,7.5-3.01h0Zm-5.97,15.28h0l5.65-12.28a7.619,7.619,0,0,0-7.34,7.35v0.27a7.405,7.405,0,0,0,1.69,4.66h0Zm31.8-12.28h0l5.67,12.29a6.547,6.547,0,0,0,.61-0.85,7.477,7.477,0,0,0-1.15-9.23v-0.01a7.766,7.766,0,0,0-5.13-2.2h0Zm-27.49,15.04h0l4.02,6.85h4.71a2.508,2.508,0,0,1,2.53,2.5v3.88h6.31v-3.88a2.54,2.54,0,0,1,2.56-2.5h4.69l4.03-6.85-6.84-14.86h-15.17l-6.84,14.86h0Z" transform="translate(-1084.03 -1288)"/>
</svg>
