<svg xmlns="http://www.w3.org/2000/svg" width="54.813" height="58.07" viewBox="0 0 54.813 58.07">
  <defs>
    <style>
      .cls-1 {
        fill: #4f342b;
        fill-rule: evenodd;
      }
    </style>
  </defs>
  <path id="icon_advantage-1.svg" class="cls-1" d="M840.427,1335.93l-15.278-15.78a21.469,21.469,0,0,0-4.242-23.22,19.88,19.88,0,0,0-28.7,0,21.4,21.4,0,0,0,0,29.61,19.93,19.93,0,0,0,14.342,6.14,19.553,19.553,0,0,0,5.963-.92l15.985,16.47a2.063,2.063,0,0,0,1.522.65h8.869a2.2,2.2,0,0,0,2.167-2.23v-9.17a2.118,2.118,0,0,0-.631-1.55h0Zm-28.066-8.85h0l-0.062.03a15.557,15.557,0,0,1-17.029-3.71,16.858,16.858,0,0,1,0-23.3,15.648,15.648,0,0,1,22.593,0,16.669,16.669,0,0,1,4.658,11.64,16.5,16.5,0,0,1-10.16,15.34h0Zm18.552,17.34h0l-14.125-14.58a25.545,25.545,0,0,0,2.352-1.66l15.755,16.24h-3.982Zm5.811-1.9h0l-15.648-16.14,0.108-.12,0.062-.07a20.673,20.673,0,0,0,1.659-2.02l13.819,14.25v4.1h0Zm-30.172-38.39h0a7.628,7.628,0,1,0,7.408,7.61,7.517,7.517,0,0,0-7.408-7.61h0Zm0,12.55h0a4.947,4.947,0,1,1,4.795-4.94,4.865,4.865,0,0,1-4.795,4.94h0Z" transform="translate(-786.25 -1290.81)"/>
</svg>
