<svg xmlns="http://www.w3.org/2000/svg" width="62.1" height="62.09" viewBox="0 0 62.1 62.09">
  <defs>
    <style>
      .cls-1 {
        fill: #4f342b;
        fill-rule: evenodd;
      }
    </style>
  </defs>
  <path id="icon_advantage-3.svg" class="cls-1" d="M1396.13,1306.2a14.735,14.735,0,1,1-14.75,14.75,14.831,14.831,0,0,1,14.75-14.75h0Zm7.7-9.69c0.71,0.24,1.41.48,2.09,0.78a21.843,21.843,0,0,1,2.03.93l2.98-2.98a2.393,2.393,0,0,1,3.37-.01l0.01,0.01,0.04,0.04,7.48,7.5a2.351,2.351,0,0,1-.01,3.35l-2.98,2.98c0.35,0.68.66,1.34,0.95,2.04,0.29,0.67.54,1.39,0.77,2.1h4.22a2.381,2.381,0,0,1,2.38,2.39v0.22l-0.01,10.41a2.377,2.377,0,0,1-2.38,2.37v0.02h-4.21c-0.23.71-.49,1.39-0.77,2.1h0c-0.29.68-.6,1.36-0.95,2.03l2.98,2.98a2.363,2.363,0,0,1,.01,3.36h-0.01l-0.03.05-7.49,7.47a2.366,2.366,0,0,1-3.37,0l-2.98-2.98a20.682,20.682,0,0,1-2.02.95l-0.12.05c-0.65.25-1.31,0.5-1.98,0.71v4.21a2.407,2.407,0,0,1-2.39,2.41l-0.21-.03H1390.8a2.373,2.373,0,0,1-2.38-2.38h-0.01v-4.21c-0.71-.22-1.4-0.49-2.09-0.76h-0.02c-0.68-.28-1.35-0.62-2.01-0.95l-2.98,2.98a2.366,2.366,0,0,1-3.37,0h-0.01l-0.04-.04-7.48-7.48a2.366,2.366,0,0,1,0-3.37l2.99-2.97c-0.35-.67-0.67-1.35-0.96-2.03s-0.53-1.39-.76-2.1h-4.22a2.4,2.4,0,0,1-2.39-2.41l0.01-.2,0.01-10.43a2.384,2.384,0,0,1,2.38-2.37h4.22c0.23-.71.48-1.43,0.77-2.1,0.28-.7.6-1.38,0.94-2.04l-2.99-2.98a2.366,2.366,0,0,1,0-3.37v-0.01l0.04-.04,7.49-7.48a2.393,2.393,0,0,1,3.37.01l2.98,2.98a26.5,26.5,0,0,1,4.12-1.71v-4.23a2.379,2.379,0,0,1,2.39-2.37h10.64a2.386,2.386,0,0,1,2.39,2.37v4.23h0Zm0.26,5.17a18.593,18.593,0,0,0-3.09-1,2.391,2.391,0,0,1-1.95-2.34v-3.66h-5.86v3.66h0a2.378,2.378,0,0,1-1.85,2.31,20.249,20.249,0,0,0-6.19,2.57h-0.01a2.354,2.354,0,0,1-2.94-.34l-2.58-2.59-4.16,4.15,2.5,2.51a2.349,2.349,0,0,1,.43,3.01,22.005,22.005,0,0,0-1.54,3.02,23.417,23.417,0,0,0-1.01,3.1,2.376,2.376,0,0,1-2.34,1.94h-3.66v5.86h3.66a2.4,2.4,0,0,1,2.32,1.85,21.472,21.472,0,0,0,1.02,3.18,21.8,21.8,0,0,0,1.55,3h0a2.393,2.393,0,0,1-.35,2.95l-2.58,2.59,4.16,4.15,2.49-2.51a2.4,2.4,0,0,1,3.03-.42,19.744,19.744,0,0,0,3,1.54h0a21.929,21.929,0,0,0,3.09,1.02,2.371,2.371,0,0,1,1.96,2.33v3.66h5.86v-3.66h0.01a2.388,2.388,0,0,1,1.84-2.32,23.91,23.91,0,0,0,3.07-.96l0.13-.07a22.214,22.214,0,0,0,3-1.52h0a2.342,2.342,0,0,1,2.94.34l2.59,2.57,4.15-4.15-2.51-2.49a2.43,2.43,0,0,1-.42-3.05,21,21,0,0,0,1.54-2.98h0a20.812,20.812,0,0,0,1.01-3.1,2.382,2.382,0,0,1,2.33-1.95h3.67v-5.86h-3.66a2.377,2.377,0,0,1-2.32-1.86,21.464,21.464,0,0,0-1.03-3.18,20.653,20.653,0,0,0-1.49-2.93,2.411,2.411,0,0,1,.29-3.04l2.59-2.57-4.15-4.15-2.51,2.51a2.409,2.409,0,0,1-3.03.42,20.7,20.7,0,0,0-3-1.54h0Zm-7.96,7.4a11.875,11.875,0,1,0,11.86,11.87,11.9,11.9,0,0,0-11.86-11.87h0Z" transform="translate(-1365.06 -1289.91)"/>
</svg>
